<svg xmlns="http://www.w3.org/2000/svg" viewBox="0 0 146.74 144.14"><defs><style>.cls-1{fill:#fff;}</style></defs><title>アセット 6</title><g id="レイヤー_2" data-name="レイヤー 2"><g id="レイヤー_1-2" data-name="レイヤー 1"><path class="cls-1" d="M17.77,122.53h-7.5V120.3a4.31,4.31,0,0,0-.28-2,1.06,1.06,0,0,0-1-.43,1.21,1.21,0,0,0-1.1.58,3.21,3.21,0,0,0-.38,1.74A4.82,4.82,0,0,0,8,122.47a6.09,6.09,0,0,0,2.28,1.84q5.4,3.1,6.79,5.09c.93,1.33,1.4,3.46,1.4,6.41a10.92,10.92,0,0,1-.78,4.74,5.89,5.89,0,0,1-3,2.55,12.11,12.11,0,0,1-5.17,1A11.92,11.92,0,0,1,4,143a5.94,5.94,0,0,1-3-3,15.18,15.18,0,0,1-.71-5.22v-2H7.74v3.66a4.68,4.68,0,0,0,.32,2.17,1.25,1.25,0,0,0,1.12.48,1.32,1.32,0,0,0,1.2-.61,3.42,3.42,0,0,0,.39-1.82c0-1.77-.25-2.93-.74-3.47a23.93,23.93,0,0,0-3.78-2.74,36,36,0,0,1-4-2.8,6.58,6.58,0,0,1-1.62-2.42A10.31,10.31,0,0,1,0,121.24a10.58,10.58,0,0,1,.91-5,6.07,6.07,0,0,1,2.94-2.5,12.1,12.1,0,0,1,4.91-.9,13.26,13.26,0,0,1,5.36,1,5.62,5.62,0,0,1,2.93,2.48,12.8,12.8,0,0,1,.72,5.09Z"/><path class="cls-1" d="M19.24,113.42h8.13a19.85,19.85,0,0,1,5.07.5,5.84,5.84,0,0,1,2.67,1.45,4.94,4.94,0,0,1,1.2,2.3,19.88,19.88,0,0,1,.32,4.17v2.62a10.61,10.61,0,0,1-.61,4.2,4.13,4.13,0,0,1-2.26,2,10.94,10.94,0,0,1-4.28.71H27.31V143.5H19.24Zm8.07,5.15v7.65c.23,0,.43,0,.6,0a1.87,1.87,0,0,0,1.54-.53,3.75,3.75,0,0,0,.43-2.2V121a2.8,2.8,0,0,0-.5-2A3.2,3.2,0,0,0,27.31,118.57Z"/><path class="cls-1" d="M46.08,113.42v24.06H51v6H38V113.42Z"/><path class="cls-1" d="M67.52,113.42l4.61,30.08H63.89l-.44-5.4H60.57l-.49,5.4H51.74l4.11-30.08Zm-4.28,19.34c-.41-3.4-.82-7.62-1.23-12.63q-1.23,8.64-1.55,12.63Z"/><path class="cls-1" d="M87.25,113.42v6H82.46V143.5H74.38V119.44H69.61v-6Z"/><path class="cls-1" d="M107.49,113.42V143.5H99.42V130.87H97V143.5H88.93V113.42H97v10.76h2.42V113.42Z"/><path class="cls-1" d="M127.44,131a62.74,62.74,0,0,1-.22,6.42,7.13,7.13,0,0,1-1.38,3.44,7.41,7.41,0,0,1-3.14,2.4,11.66,11.66,0,0,1-4.6.84,12.11,12.11,0,0,1-4.47-.79,7.31,7.31,0,0,1-3.19-2.37,7,7,0,0,1-1.44-3.44,59.8,59.8,0,0,1-.23-6.5v-5.15a62.74,62.74,0,0,1,.22-6.42,7.12,7.12,0,0,1,1.38-3.45,7.34,7.34,0,0,1,3.13-2.39,11.69,11.69,0,0,1,4.6-.84,12,12,0,0,1,4.48.79,7.29,7.29,0,0,1,3.19,2.37,6.92,6.92,0,0,1,1.44,3.44,62.3,62.3,0,0,1,.23,6.5Zm-8.07-9.89a9,9,0,0,0-.24-2.68,1,1,0,0,0-1-.59,1.14,1.14,0,0,0-1,.47,6.65,6.65,0,0,0-.33,2.8v14a13.26,13.26,0,0,0,.22,3.23,1,1,0,0,0,1,.61,1,1,0,0,0,1.06-.7,14.66,14.66,0,0,0,.23-3.37Z"/><path class="cls-1" d="M146.74,113.42V143.5h-7.07l-4.2-13.67V143.5h-6.75V113.42h6.75L140,127V113.42Z"/><path class="cls-1" d="M122.24,59.3C114.16,45,92.64,37,90,36.12L110.41,0H75.27L18.71,104.13h33L70.52,70.75A28.27,28.27,0,0,1,85.88,81c7.44,9.43,3.89,23.18,3.89,23.18h41.07S131.77,76.22,122.24,59.3Z"/><path class="cls-1" d="M14.82,23.17c-3.47,6,14.44,40.05,14.44,40.05L55.89,15.33S18.46,16.86,14.82,23.17Z"/></g></g></svg>