<svg xmlns="http://www.w3.org/2000/svg" viewBox="0 0 381.4 70.34"><defs><style>.cls-1{fill:#fff;}</style></defs><title>アセット 7</title><g id="レイヤー_2" data-name="レイヤー 2"><g id="レイヤー_1-2" data-name="レイヤー 1"><path class="cls-1" d="M125.38,27.45H110.5V23c0-2.07-.19-3.38-.57-3.95a2.13,2.13,0,0,0-1.9-.85,2.47,2.47,0,0,0-2.19,1.15,6.51,6.51,0,0,0-.74,3.47,9.66,9.66,0,0,0,.83,4.5q.79,1.52,4.53,3.65,10.7,6.17,13.48,10.1t2.77,12.73c0,4.25-.51,7.39-1.54,9.4s-3,3.71-6,5.08a24.3,24.3,0,0,1-10.28,2A23.55,23.55,0,0,1,98,68Q93.42,65.63,92,62c-.94-2.43-1.41-5.89-1.41-10.36V47.7h14.88V55q0,3.36.63,4.32a2.45,2.45,0,0,0,2.22,1A2.63,2.63,0,0,0,110.71,59a6.77,6.77,0,0,0,.78-3.61q0-5.28-1.48-6.9a47.68,47.68,0,0,0-7.5-5.42,74.59,74.59,0,0,1-7.91-5.57,13,13,0,0,1-3.22-4.8,20.53,20.53,0,0,1-1.27-7.82c0-4.57.6-7.92,1.8-10a12,12,0,0,1,5.85-5,23.77,23.77,0,0,1,9.74-1.79,26.11,26.11,0,0,1,10.63,2q4.4,2,5.82,4.93c1,2,1.43,5.34,1.43,10.09Z"/><path class="cls-1" d="M128.31,9.37h16.13a38.75,38.75,0,0,1,10.07,1,11.29,11.29,0,0,1,5.29,2.88,9.66,9.66,0,0,1,2.39,4.55,39.39,39.39,0,0,1,.63,8.28v5.2c0,3.81-.4,6.59-1.22,8.34a8.26,8.26,0,0,1-4.47,4,21.81,21.81,0,0,1-8.5,1.4h-4.3V69.09h-16Zm16,10.22v15.2l1.18,0a3.77,3.77,0,0,0,3.06-1c.57-.7.86-2.16.86-4.37V24.5c0-2.05-.33-3.37-1-4S146.41,19.59,144.33,19.59Z"/><path class="cls-1" d="M181.58,9.37V57.14h9.74v12H165.56V9.37Z"/><path class="cls-1" d="M224.14,9.37l9.16,59.72H216.93l-.86-10.73h-5.73l-1,10.73H192.81L201,9.37Zm-8.49,38.4q-1.22-10.14-2.44-25.08-2.44,17.14-3.08,25.08Z"/><path class="cls-1" d="M263.3,9.37v12h-9.51V69.09h-16V21.32h-9.48v-12Z"/><path class="cls-1" d="M303.48,9.37V69.09h-16V44h-4.8V69.09h-16V9.37h16V30.73h4.8V9.37Z"/><path class="cls-1" d="M343.09,44.34a126.3,126.3,0,0,1-.44,12.74,14,14,0,0,1-2.74,6.85,14.65,14.65,0,0,1-6.22,4.75,23.21,23.21,0,0,1-9.13,1.66,24,24,0,0,1-8.89-1.56,14.59,14.59,0,0,1-6.33-4.71,13.93,13.93,0,0,1-2.86-6.82A124,124,0,0,1,306,44.34V34.12a127.14,127.14,0,0,1,.43-12.74,14,14,0,0,1,2.74-6.84,14.65,14.65,0,0,1,6.22-4.76,23.26,23.26,0,0,1,9.14-1.66,23.74,23.74,0,0,1,8.88,1.57,14.52,14.52,0,0,1,6.34,4.7,13.82,13.82,0,0,1,2.85,6.82,120.43,120.43,0,0,1,.46,12.91Zm-16-19.62a17.78,17.78,0,0,0-.48-5.33,1.89,1.89,0,0,0-2-1.17,2.22,2.22,0,0,0-1.92,1c-.44.62-.67,2.47-.67,5.55V52.6a26.64,26.64,0,0,0,.44,6.42,1.92,1.92,0,0,0,2,1.22,2,2,0,0,0,2.09-1.4,28.31,28.31,0,0,0,.46-6.68Z"/><path class="cls-1" d="M381.4,9.37V69.09h-14L359,41.94V69.09h-13.4V9.37H359l9,26.89V9.37Z"/><path class="cls-1" d="M71.57,39.35C66.21,29.84,51.93,24.58,50.21,24L63.72,0H40.41L2.88,69.09H24.77L37.26,46.94a18.81,18.81,0,0,1,10.19,6.77C52.38,60,50,69.09,50,69.09H77.28S77.9,50.57,71.57,39.35Z"/><path class="cls-1" d="M.3,15.37C-2,19.35,9.88,42,9.88,42L27.55,10.17S2.72,11.19.3,15.37Z"/></g></g></svg>